<svg xmlns="http://www.w3.org/2000/svg" viewBox="0 0 220 220">
<circle cx="110" cy="110" r="106" fill="#F4EFE3"/>
<circle cx="110" cy="110" r="106" fill="none" stroke="#14342B" stroke-width="5"/>
<circle cx="110" cy="110" r="98" fill="none" stroke="#B8860B" stroke-width="1.5" opacity="0.55"/>
<g transform="translate(36.4,31.0) scale(0.6810)">


<path d="M0 0 C2.987 2.905 5.067 6.047 7.305 9.551 C19.329 26.922 38.949 35.168 58.081 42.324 C65.479 45.15 72.626 48.319 78.062 54.25 C80.601 61.696 78.987 67.432 76 74.5 C71.5 85.447 71.127 96.75 75 108 C81.579 122.651 93.602 131.259 107.625 138.188 C114.289 141.533 120.743 144.935 127 149 C121.337 156.653 113.542 161.864 104.09 163.758 C95.318 164.774 87.338 163.779 79 161 C79 160.34 79 159.68 79 159 C79.278 158.957 79.278 158.957 80.688 158.738 C86.72 157.627 91.016 155.518 96 152 C96.99 151.34 97.98 150.68 99 150 C97.742 150.33 96.484 150.66 95.188 151 C82.942 153.386 68.82 154.127 58 147 C58 146.34 58 145.68 58 145 C59.109 144.602 60.217 144.203 61.359 143.793 C62.823 143.258 64.287 142.723 65.75 142.188 C66.48 141.926 67.209 141.665 67.961 141.396 C71.741 140.005 74.925 138.695 78 136 C77.285 136.217 76.569 136.433 75.832 136.656 C66.819 139.175 57.01 141.279 48.188 137.125 C47.136 136.424 46.084 135.722 45 135 C45 134.34 45 133.68 45 133 C45.303 132.968 45.303 132.968 46.836 132.809 C54.126 131.743 59.514 128.949 65 124 C65 123.34 65 122.68 65 122 C64.457 122.277 63.915 122.554 63.355 122.84 C62.998 123.021 62.998 123.021 61.188 123.938 C60.834 124.117 60.834 124.117 59.043 125.027 C53.334 127.746 47.446 128.062 41.402 126.199 C34.848 123.251 30.128 118.869 26 113 C26 112.34 26 111.68 26 111 C27.111 111.046 28.222 111.093 29.367 111.141 C40.42 111.464 49.479 110.953 58 103 C57.406 103.217 56.811 103.433 56.199 103.656 C46.522 106.907 38.121 107.211 28.57 103.32 C20.685 99.27 14.359 92.182 11.188 83.871 C10.721 82.266 10.348 80.635 10 79 C10.904 79.422 11.807 79.843 12.738 80.277 C13.328 80.551 13.328 80.551 16.312 81.938 C17.484 82.483 18.656 83.028 19.863 83.59 C32.446 89.247 49.025 86.348 62 83 C58.135 82.049 54.42 81.843 50.465 81.71 C34.342 81.152 21.059 78.843 9.562 66.562 C6.31 62.658 3.926 58.691 2 54 C1.658 53.24 1.317 52.48 0.965 51.696 C-0.036 48.899 -0.242 46.89 -0.227 43.934 C-0.227 42.954 -0.227 41.973 -0.227 40.963 C-0.216 39.917 -0.206 38.871 -0.195 37.793 C-0.192 36.712 -0.19 35.632 -0.187 34.519 C-0.176 31.075 -0.15 27.631 -0.125 24.188 C-0.115 21.85 -0.106 19.512 -0.098 17.174 C-0.076 11.449 -0.042 5.725 0 0 Z " fill="#14342B" transform="translate(0,49)"/>
<path d="M0 0 C0.66 0 1.32 0 2 0 C2.268 0.871 2.536 1.743 2.812 2.641 C11.824 30.032 33.804 46.177 58.477 58.828 C59.405 59.305 60.333 59.782 61.289 60.274 C63.084 61.189 64.885 62.092 66.693 62.982 C73.843 66.599 81.668 71.435 85.367 78.867 C87.151 84.879 87.136 91.132 84.824 96.969 C83.323 99.73 81.707 102.362 80 105 C79.07 106.596 78.152 108.2 77.25 109.812 C76.863 110.479 76.477 111.145 76.078 111.832 C71.953 120.127 71.665 129.963 73.652 138.949 C77.973 150.762 86.526 157.729 97 164 C98.647 164.713 100.308 165.399 102 166 C101.578 165.036 101.157 164.072 100.723 163.078 C100.169 161.802 99.616 160.526 99.062 159.25 C98.785 158.616 98.507 157.982 98.221 157.328 C94.487 148.691 92.951 139.485 96.34 130.414 C97.794 127.533 99.309 124.747 101 122 C97.858 123.536 94.914 125.057 92 127 C93.113 117.405 99.078 110.204 106.301 104.145 C108 103 108 103 110 103 C110 102.34 110 101.68 110 101 C109.257 100.773 108.515 100.546 107.75 100.312 C104.422 98.724 103.033 97.05 101 94 C100.627 92.677 100.286 91.344 100 90 C100.687 90.217 101.374 90.433 102.082 90.656 C102.983 90.935 103.884 91.213 104.812 91.5 C105.706 91.778 106.599 92.057 107.52 92.344 C110 93 110 93 113 93 C112.529 92.481 112.059 91.961 111.574 91.426 C103.11 81.945 103.11 81.945 102.812 76.688 C102.874 75.801 102.936 74.914 103 74 C103.51 74.375 104.021 74.75 104.547 75.137 C115.185 82.625 124.626 85.713 137.625 85.625 C148.575 85.625 158.115 85.892 166.723 93.305 C168 95 168 95 168.391 97.598 C168.592 98.39 168.793 99.183 169 100 C171.074 101.004 171.074 101.004 173.688 101.562 C178.712 102.842 183.211 104.169 186.133 108.793 C187.802 113.042 187.556 117.523 187 122 C185.921 124.463 184.779 125.942 183 128 C182.745 127.611 182.745 127.611 181.457 125.641 C178.364 122.317 176.073 121.79 171.688 120.75 C170.413 120.435 169.138 120.121 167.824 119.797 C164.211 119.044 160.657 118.473 157 118 C159.485 115.515 161.058 115.693 164.461 115.621 C164.818 115.622 164.818 115.622 166.625 115.625 C167.347 115.624 168.069 115.622 168.812 115.621 C174.468 115.733 178.235 116.823 183 120 C182.744 115.645 182.427 113.504 179.562 110.125 C176.175 107.316 174.674 106.876 170.375 106.938 C169.558 106.947 168.74 106.956 167.898 106.965 C167.272 106.976 166.645 106.988 166 107 C166.268 106.299 166.536 105.597 166.812 104.875 C167.039 101.404 165.981 100.069 163.812 97.43 C158.325 93.101 153.036 92.56 146.312 92.75 C145.921 92.755 145.921 92.755 143.94 92.783 C137.603 92.903 131.301 93.308 125 94 C125.577 94.266 126.155 94.531 126.75 94.805 C127.493 95.158 128.235 95.511 129 95.875 C129.743 96.223 130.485 96.571 131.25 96.93 C131.827 97.283 132.405 97.636 133 98 C133 98.66 133 99.32 133 100 C132.466 100.135 131.933 100.271 131.383 100.41 C124.556 102.383 119.682 105.758 114 110 C118.29 110 122.58 110 127 110 C125.35 111.32 123.7 112.64 122 114 C114.071 120.602 109.767 129.159 108.762 139.438 C108.295 155.557 116.233 168.663 125.573 181.142 C127.912 184.298 129.928 187.195 131 191 C130.67 191.99 130.34 192.98 130 194 C129.394 193.348 128.788 192.695 128.164 192.023 C120.557 184.089 113.38 179.337 103.25 175.188 C86.018 168.017 72.061 157.31 64.562 139.812 C60.27 126.787 62.965 113.346 68.75 101.25 C70.321 97.166 71.105 93.295 70 89 C66.664 84.14 63.235 81.643 57.875 79.188 C57.185 78.855 56.495 78.522 55.784 78.179 C51.954 76.343 48.09 74.586 44.219 72.84 C26.085 64.593 8.272 54.244 0.742 34.742 C-2.996 23.057 -3.057 11.845 0 0 Z " fill="#14342B" transform="translate(13,11)"/>
<path d="M0 0 C0.66 0.33 1.32 0.66 2 1 C1.856 1.232 1.856 1.232 1.125 2.406 C-3.269 10.585 -3.279 19.991 -1.375 28.938 C0.896 35.427 5.703 42.851 12 46 C11.675 45.314 11.35 44.628 11.016 43.922 C9.842 40.545 9.734 37.818 9.75 34.25 C9.745 33.1 9.74 31.95 9.734 30.766 C9.822 29.853 9.91 28.94 10 28 C10.66 27.67 11.32 27.34 12 27 C12.208 27.69 12.415 28.379 12.629 29.09 C15.492 37.824 19.712 43.666 26.098 50.18 C36.098 60.448 44.174 70.909 44.188 85.875 C44.2 86.583 44.212 87.29 44.225 88.02 C44.236 92.134 43.835 95.302 42 99 C41.01 99 40.02 99 39 99 C38.853 97.984 38.706 96.968 38.555 95.922 C36.002 79.67 29.479 69.516 18 58 C18 60.31 18 62.62 18 65 C17.319 64.319 16.639 63.639 15.938 62.938 C15.709 62.709 15.709 62.709 14.551 61.555 C13.48 60.482 12.416 59.403 11.355 58.32 C8.514 55.434 5.698 52.738 2.5 50.25 C-4.345 44.502 -9.212 35.831 -10.406 26.992 C-10.736 16.027 -6.941 8.329 0 0 Z " fill="#14342B" transform="translate(137,133)"/>

<path d="M0 0 C0 0.33 0 0.66 0 1 C-0.88 1.159 -1.761 1.317 -2.668 1.48 C-13.351 3.627 -13.351 3.627 -16.375 6.312 C-18 9 -18 9 -18.125 12 C-16.048 17.539 -11.851 20.145 -7.125 23.375 C1.658 29.461 7.306 35.751 11 46 C11.429 49.204 11.324 51.759 11 55 C9.822 53.233 8.672 51.445 7.59 49.617 C0.902 38.519 -7.037 31.578 -17.961 24.945 C-20.351 23.415 -22.152 22.114 -24 20 C-24.33 21.32 -24.66 22.64 -25 24 C-29.639 18.528 -31.138 16.429 -31 9 C-31.554 9.277 -32.109 9.554 -32.68 9.84 C-35.453 11.227 -38.227 12.613 -41 14 C-39.762 8.677 -37.552 5.853 -33 3 C-23.196 -2.822 -10.877 -2.104 0 0 Z " fill="#14342B" transform="translate(188,134)"/>
<path d="M0 0 C9.413 2.229 17.527 9.219 23 17 C27.624 24.574 27.76 31.285 26.375 39.875 C24.769 45.541 21.978 50.942 19 56 C18.67 56.165 18.67 56.165 17 57 C17.16 56.004 17.32 55.007 17.484 53.98 C19.785 37.741 17.479 23.584 8 10 C5.912 7.459 3.768 5.029 1.504 2.645 C0 1 0 1 0 0 Z " fill="#14342B" transform="translate(170,171)"/>
<path d="M0 0 C0.66 0.33 1.32 0.66 2 1 C1.856 1.232 1.856 1.232 1.125 2.406 C-3.244 10.538 -3.383 20.088 -1.305 28.973 C0.794 34.677 4.115 39.364 8 44 C6.112 46.697 4.802 48.132 2 50 C-6.092 40.768 -10.91 32.891 -10.523 20.32 C-9.282 12.444 -5.022 6.026 0 0 Z " fill="#14342B" transform="translate(137,133)"/>

<path d="M0 0 C3.094 4.641 3.183 8.47 3.188 13.875 C3.2 14.583 3.212 15.29 3.225 16.02 C3.236 20.134 2.835 23.302 1 27 C0.01 27 -0.98 27 -2 27 C-2.182 25.938 -2.364 24.876 -2.551 23.781 C-3.82 16.578 -5.051 9.741 -8 3 C-5.361 1.586 -2.929 0.628 0 0 Z " fill="#14342B" transform="translate(178,205)"/>
<path d="M0 0 C0.66 0.33 1.32 0.66 2 1 C1.723 1.487 1.446 1.975 1.16 2.477 C-1.973 8.61 -2.563 14.118 -2.824 20.961 C-3 24 -3 24 -4 27 C-7.444 30 -7.444 30 -10 30 C-11.071 17.708 -7.849 9.418 0 0 Z " fill="#14342B" transform="translate(137,133)"/>
<path d="M0 0 C0.289 0.093 0.289 0.093 1.75 0.562 C4.231 1.045 5.61 0.717 8 0 C8.66 0 9.32 0 10 0 C11.717 2.799 12.946 5.001 13.125 8.312 C12 10 12 10 8.812 11.188 C4.616 10.981 4.182 10.74 1.5 7.812 C-0.031 5.957 -0.031 5.957 -1 4 C-0.656 1.762 -0.656 1.762 0 0 Z " fill="#14342B" transform="translate(165,197)"/>

<path d="M0 0 C0.66 1.32 1.32 2.64 2 4 C2.99 3.67 3.98 3.34 5 3 C5.33 2.01 5.66 1.02 6 0 C6.84 1.935 7.672 3.873 8.5 5.812 C8.964 6.891 9.428 7.97 9.906 9.082 C11 12 11 12 11 15 C8.69 14.01 6.38 13.02 4 12 C3.34 12.66 2.68 13.32 2 14 C0.029 9.073 -0.18 5.22 0 0 Z " fill="#14342B" transform="translate(128,157)"/>
<path d="M0 0 C1.866 3.588 3.425 7.278 5 11 C2.688 12.562 2.688 12.562 0 14 C-0.99 13.67 -1.98 13.34 -3 13 C-4.688 9.438 -4.688 9.438 -6 6 C-5.196 5.567 -4.391 5.134 -3.562 4.688 C-1 3 -1 3 0 0 Z " fill="#14342B" transform="translate(85,147)"/>
</g></svg>